<?xml version="1.0" encoding="utf-8"?>
<!-- Generator: Adobe Illustrator 16.0.0, SVG Export Plug-In . SVG Version: 6.00 Build 0)  -->
<!DOCTYPE svg PUBLIC "-//W3C//DTD SVG 1.0//EN" "http://www.w3.org/TR/2001/REC-SVG-20010904/DTD/svg10.dtd">
<svg version="1.0" id="Warstwa_1" xmlns="http://www.w3.org/2000/svg" xmlns:xlink="http://www.w3.org/1999/xlink" x="0px" y="0px"
	 width="30px" height="30px" viewBox="0 0 30 30" enable-background="new 0 0 30 30" xml:space="preserve">
<polygon fill="#FFFFFF" points="21.513,27.372 15.092,29.083 8.752,27.24 8.752,18.438 21.513,18.438 "/>
<g display="none">
	<path display="inline" fill="#FFFFFF" d="M8.675,20.727v6.82 M21.324,27.547v-6.82 M8.675,20.727c0-3.098,2.831-5.612,6.325-5.612
		c3.493,0,6.324,2.514,6.324,5.612"/>
	<path display="inline" fill="#EE5159" d="M21.82,25.576h-0.992v-5.738h0.992V25.576z M9.171,25.576H8.18v-5.738h0.991V25.576z
		 M21.82,19.838h-0.992c0-2.332-2.614-4.228-5.828-4.228c-3.214,0-5.829,1.896-5.829,4.228H8.18c0-2.879,3.06-5.219,6.82-5.219
		S21.82,16.959,21.82,19.838z"/>
	<path display="inline" fill="#EE5159" d="M21.98,25.574l-1.312,0.961v-6.699c0-2.24-2.543-4.065-5.668-4.065
		s-5.668,1.825-5.668,4.065v6.699l-1.312-0.961v-5.738c0-2.965,3.131-5.377,6.98-5.377s6.981,2.413,6.981,5.377V25.574z"/>
	<path display="inline" fill="#EE5159" d="M20.172,27.51v-7.674c0-1.969-2.32-3.568-5.172-3.568s-5.172,1.6-5.172,3.568v7.674
		l-2.304-1.684v-5.99c0-3.238,3.354-5.873,7.476-5.873s7.477,2.635,7.477,5.873v5.99L20.172,27.51z M15,15.276
		c3.399,0,6.164,2.046,6.164,4.56v5.723l0.322-0.234v-5.488c0-2.691-2.909-4.882-6.486-4.882c-3.576,0-6.485,2.19-6.485,4.882v5.488
		l0.321,0.234v-5.723C8.836,17.322,11.601,15.276,15,15.276z"/>
	<path display="inline" fill="#FFFFFF" d="M17.999,12.044c-0.874,1.941-1.034,3.842-3,3.842c-1.966,0-2.279-1.737-3.094-3.842
		C11.193,10.211,11.749,7.239,15,7.239C17.96,7.239,18.807,10.251,17.999,12.044"/>
	<path display="inline" fill="#EE5159" d="M15,16.381c-2.04,0-2.625-1.61-3.244-3.315c-0.099-0.271-0.201-0.554-0.313-0.843
		c-0.519-1.338-0.38-2.897,0.355-3.972C12.269,7.564,13.207,6.744,15,6.744c1.349,0,2.463,0.576,3.139,1.621
		c0.727,1.124,0.852,2.685,0.312,3.883c-0.186,0.412-0.338,0.823-0.483,1.213C17.434,14.896,16.882,16.381,15,16.381z M15,7.735
		c-1.092,0-1.895,0.362-2.383,1.077c-0.632,0.924-0.581,2.199-0.249,3.053c0.115,0.296,0.22,0.585,0.321,0.863
		c0.653,1.798,1.023,2.662,2.312,2.662c1.143,0,1.468-0.739,2.04-2.275c0.152-0.41,0.313-0.841,0.508-1.274
		c0.4-0.891,0.302-2.098-0.241-2.938C16.961,8.37,16.281,7.735,15,7.735z"/>
	<path display="inline" fill="#EE5159" d="M15.001,7.896c-1.036,0-1.793,0.339-2.25,1.006c-0.6,0.876-0.55,2.09-0.232,2.904
		c0.115,0.297,0.22,0.587,0.321,0.865c0.644,1.774,0.978,2.559,2.161,2.559c0.994,0,1.292-0.562,1.889-2.172
		c0.154-0.412,0.312-0.841,0.51-1.283c0.382-0.844,0.287-1.988-0.228-2.784C16.85,8.492,16.212,7.896,15.001,7.896 M15.001,16.543
		c-2.153,0-2.756-1.663-3.396-3.423c-0.098-0.269-0.2-0.551-0.311-0.838c-0.538-1.386-0.392-3.003,0.373-4.121
		c0.493-0.72,1.472-1.577,3.334-1.577c1.404,0,2.568,0.602,3.274,1.695c0.755,1.167,0.884,2.789,0.324,4.036
		c-0.182,0.4-0.333,0.807-0.479,1.2C17.569,15.003,16.996,16.543,15.001,16.543"/>
	<path display="inline" fill="#EE5159" d="M15.001,17.039c-2.5,0-3.223-1.992-3.861-3.749c-0.103-0.284-0.201-0.554-0.308-0.83
		c-0.595-1.533-0.428-3.332,0.426-4.58c0.56-0.818,1.664-1.793,3.743-1.793c1.58,0,2.89,0.683,3.691,1.922
		c0.841,1.302,0.985,3.114,0.358,4.508c-0.176,0.391-0.324,0.787-0.465,1.169C18.032,15.179,17.344,17.039,15.001,17.039z
		 M15.001,7.079c-1.647,0-2.5,0.74-2.925,1.361c-0.675,0.986-0.8,2.424-0.32,3.661c0.11,0.283,0.21,0.56,0.307,0.826
		c0.706,1.943,1.22,3.12,2.938,3.12c1.542,0,2.032-1.021,2.655-2.705c0.149-0.403,0.305-0.82,0.491-1.232
		c0.494-1.099,0.378-2.531-0.288-3.562C17.248,7.601,16.232,7.079,15.001,7.079z M15.001,15.725c-1.58,0-2.019-1.209-2.627-2.885
		c-0.119-0.326-0.214-0.588-0.317-0.855c-0.364-0.934-0.417-2.336,0.285-3.363C12.724,8.065,13.496,7.4,15.001,7.4
		c1.432,0,2.198,0.719,2.588,1.322c0.61,0.946,0.716,2.254,0.263,3.257c-0.186,0.413-0.336,0.817-0.48,1.206
		C16.764,14.824,16.363,15.725,15.001,15.725z M15.001,8.392c-0.875,0-1.477,0.258-1.841,0.791c-0.496,0.724-0.44,1.774-0.179,2.444
		c0.106,0.275,0.204,0.543,0.298,0.802c0.685,1.883,0.919,2.307,1.723,2.307c0.599,0,0.802-0.17,1.424-1.849
		c0.17-0.454,0.327-0.877,0.522-1.312c0.312-0.688,0.229-1.66-0.191-2.313C16.385,8.684,15.793,8.392,15.001,8.392z"/>
	<path display="inline" fill="#EE5159" d="M15,30C6.729,30,0,23.271,0,15C0,6.729,6.729,0,15,0S30,6.729,30,15
		C30,23.271,23.271,30,15,30z M15,2.974C8.369,2.974,2.974,8.369,2.974,15c0,6.63,5.395,12.025,12.026,12.025
		c6.631,0,12.027-5.395,12.027-12.025C27.026,8.369,21.631,2.974,15,2.974z"/>
</g>
<g display="none">
	<path display="inline" fill="#EE5159" d="M15.019,26.018c0.115-0.148,0.186-0.264,0.278-0.357c2.672-2.674,5.344-5.346,8.016-8.02
		c0.784-0.783,1.604-1.535,2.34-2.361c1.838-2.057,2.241-4.404,1.186-6.944c-0.982-2.363-3.36-3.861-5.929-3.815
		c-1.728,0.031-3.207,0.687-4.441,1.892c-0.521,0.509-1.03,1.031-1.576,1.579c-0.557-0.57-1.07-1.14-1.629-1.658
		C11.71,4.891,9.862,4.298,7.78,4.675C5.397,5.106,3.738,6.504,2.967,8.809c-0.78,2.334-0.271,4.457,1.328,6.316
		c0.434,0.503,0.881,0.998,1.348,1.469c2.215,2.238,4.439,4.467,6.659,6.695C13.186,24.176,14.069,25.062,15.019,26.018
		 M15.016,28.922c-0.676-0.656-1.346-1.287-1.992-1.939c-3.415-3.453-6.869-6.865-10.223-10.375
		c-4.297-4.495-2.336-11.976,3.587-13.77c3.074-0.93,5.842-0.229,8.257,1.878c0.083,0.073,0.163,0.148,0.262,0.238
		c0.087-0.079,0.167-0.149,0.248-0.222c2.498-2.229,5.375-2.931,8.547-1.867c3.156,1.059,5.084,3.328,5.669,6.613
		c0.518,2.909-0.356,5.438-2.433,7.528c-3.243,3.264-6.502,6.508-9.755,9.762c-0.651,0.65-1.303,1.301-1.954,1.951
		C15.153,28.799,15.07,28.871,15.016,28.922"/>
	<path display="inline" fill="#EE5159" d="M8.981,5.048c-0.362,0-0.738,0.035-1.115,0.103c-2.236,0.406-3.73,1.688-4.441,3.812
		c-0.705,2.108-0.289,4.075,1.236,5.847c0.475,0.551,0.908,1.023,1.325,1.447c1.64,1.656,3.285,3.309,4.932,4.957l4.062,4.08
		l7.99-7.994c0.237-0.236,0.479-0.473,0.719-0.707c0.54-0.525,1.099-1.07,1.603-1.634c1.708-1.914,2.079-4.08,1.099-6.437
		c-0.888-2.136-2.996-3.517-5.366-3.517l-0.106,0.001c-1.566,0.027-2.949,0.618-4.112,1.754c-0.356,0.348-0.708,0.705-1.069,1.07
		l-0.847,0.851l-0.863-0.892c-0.362-0.379-0.717-0.751-1.093-1.101C11.763,5.6,10.433,5.048,8.981,5.048 M15.064,26.75l-4.832-4.854
		c-1.646-1.65-3.292-3.303-4.933-4.963c-0.433-0.436-0.881-0.926-1.371-1.493c-1.763-2.049-2.24-4.332-1.419-6.786
		c0.819-2.449,2.612-3.989,5.186-4.456c2.197-0.397,4.208,0.21,5.898,1.78c0.39,0.362,0.758,0.748,1.133,1.142l0.172,0.179
		l0.149-0.152c0.367-0.37,0.722-0.729,1.082-1.082c1.347-1.314,2.951-1.997,4.773-2.029l0.122-0.001
		c2.764,0,5.221,1.615,6.261,4.115c1.118,2.691,0.679,5.268-1.271,7.452c-0.527,0.589-1.097,1.146-1.648,1.683
		c-0.237,0.232-0.475,0.465-0.71,0.699l-8.016,8.018c-0.044,0.045-0.081,0.1-0.127,0.162L15.064,26.75z M8.992,2.918
		c-0.795,0-1.625,0.128-2.463,0.383C3.913,4.093,1.934,6.156,1.234,8.819c-0.704,2.676,0.013,5.462,1.916,7.453
		c2.408,2.52,4.909,5.029,7.327,7.461c0.965,0.967,1.929,1.936,2.891,2.908c0.441,0.445,0.893,0.879,1.349,1.318l0.3,0.291
		l4.71-4.707c2.291-2.289,4.584-4.578,6.867-6.875c2.006-2.021,2.778-4.41,2.3-7.104c-0.559-3.137-2.358-5.237-5.347-6.239
		c-2.929-0.982-5.656-0.385-8.07,1.77l-0.573,0.511l-0.577-0.523C12.681,3.646,10.888,2.918,8.992,2.918 M15.06,29.539l-0.381-0.27
		l-0.633-0.613c-0.462-0.443-0.92-0.885-1.367-1.336c-0.96-0.971-1.924-1.938-2.888-2.906c-2.423-2.434-4.927-4.947-7.341-7.473
		c-2.137-2.237-2.943-5.364-2.153-8.367c0.786-2.992,3.01-5.309,5.95-6.199c3.135-0.951,6.084-0.292,8.661,1.929
		c2.656-2.332,5.717-2.98,8.947-1.897c3.302,1.108,5.373,3.524,5.989,6.988c0.539,3.021-0.324,5.698-2.563,7.955
		c-2.285,2.299-4.579,4.59-6.872,6.879l-4.838,4.836c-0.06,0.059-0.122,0.117-0.174,0.164L15.06,29.539z"/>
</g>
<g display="none">
	<defs>
		<rect id="SVGID_1_" y="-0.001" width="30" height="30.001"/>
	</defs>
	<clipPath id="SVGID_2_" display="inline">
		<use xlink:href="#SVGID_1_"  overflow="visible"/>
	</clipPath>
	<path display="inline" clip-path="url(#SVGID_2_)" fill="#EE5159" d="M16.407,22.344c0,0.609-0.2,1.103-0.6,1.484
		c-0.397,0.382-0.894,0.571-1.485,0.571c-0.572,0-1.064-0.189-1.469-0.571c-0.41-0.382-0.613-0.875-0.613-1.484
		c0-0.607,0.203-1.108,0.613-1.499c0.405-0.39,0.897-0.586,1.469-0.586c0.591,0,1.088,0.196,1.485,0.586
		C16.207,21.235,16.407,21.736,16.407,22.344 M14.376,8.281c-0.61,0-1.191,0.074-1.744,0.22c-0.556,0.148-1.139,0.386-1.747,0.718
		L10,6.797c0.641-0.366,1.377-0.655,2.202-0.874c0.822-0.216,1.67-0.323,2.539-0.323c1.041,0,1.899,0.142,2.577,0.429
		c0.676,0.285,1.216,0.646,1.615,1.08c0.397,0.434,0.676,0.912,0.832,1.431c0.156,0.522,0.233,1.026,0.233,1.514
		c0,0.587-0.106,1.117-0.325,1.586c-0.215,0.469-0.488,0.904-0.82,1.303c-0.328,0.397-0.684,0.776-1.065,1.135
		c-0.384,0.353-0.737,0.719-1.067,1.093c-0.332,0.372-0.605,0.767-0.822,1.184c-0.216,0.418-0.327,0.887-0.327,1.407v0.3
		c0,0.112,0.01,0.22,0.028,0.323h-2.709c-0.035-0.171-0.059-0.358-0.079-0.557c-0.017-0.2-0.024-0.388-0.024-0.562
		c0-0.572,0.094-1.084,0.285-1.537c0.191-0.45,0.434-0.866,0.731-1.25c0.294-0.381,0.611-0.737,0.948-1.067
		c0.341-0.329,0.658-0.66,0.951-0.988c0.295-0.331,0.538-0.668,0.729-1.017c0.19-0.346,0.289-0.728,0.289-1.146
		c0-0.571-0.197-1.045-0.587-1.42C15.742,8.467,15.156,8.281,14.376,8.281"/>
	<path display="inline" clip-path="url(#SVGID_2_)" fill="#EE5159" d="M15,2.727C8.233,2.727,2.728,8.232,2.728,15
		c0,6.767,5.506,12.272,12.273,12.272S27.272,21.767,27.272,15C27.272,8.232,21.768,2.727,15,2.727 M15,30C6.729,30,0,23.271,0,15
		C0,6.729,6.729-0.001,15-0.001c8.272,0,15,6.73,15,15.001C30.001,23.271,23.272,30,15,30"/>
</g>
<g display="none">
	<path display="inline" fill="#F0505A" d="M7.927,12.104c0,0.664-0.54,1.203-1.202,1.203c-0.665,0-1.203-0.539-1.203-1.203
		s0.538-1.202,1.203-1.202C7.387,10.902,7.927,11.44,7.927,12.104"/>
	<path display="inline" fill="#F0505A" d="M13.096,12.104c0,0.664-0.539,1.203-1.203,1.203c-0.664,0-1.202-0.539-1.202-1.203
		s0.538-1.202,1.202-1.202C12.557,10.902,13.096,11.44,13.096,12.104"/>
	<path display="inline" fill="#F0505A" d="M18.512,12.104c0,0.664-0.539,1.203-1.203,1.203s-1.202-0.539-1.202-1.203
		s0.538-1.202,1.202-1.202S18.512,11.44,18.512,12.104"/>
	<path display="inline" fill="#F0505A" d="M5.062,5.062c-3.833,3.833-3.833,10.073,0,13.907c3.834,3.833,10.073,3.833,13.907,0
		c3.834-3.835,3.834-10.072,0-13.907C15.135,1.229,8.897,1.227,5.062,5.062 M20.516,20.516c-4.69,4.69-12.314,4.686-17,0
		c-4.686-4.685-4.689-12.31,0-17c4.69-4.69,12.314-4.686,17,0C25.2,8.201,25.205,15.826,20.516,20.516"/>
	<path display="inline" fill="#F0505A" d="M21.872,17.905l7.306,7.308c1.096,1.095,1.096,2.871,0,3.966
		C28.631,29.727,27.912,30,27.195,30c-0.718,0-1.437-0.273-1.984-0.821l-7.305-7.307"/>
</g>
<g display="none">
	<path display="inline" fill="#F0505A" d="M19.656,22.824c0.59,0,1.143,0.006,1.698-0.011c0.048-0.001,0.127-0.145,0.136-0.229
		c0.192-1.716,0.379-3.434,0.564-5.149c0.244-2.244,0.489-4.488,0.731-6.733c0.079-0.723,0.15-1.447,0.227-2.191
		c-0.067-0.006-0.12-0.021-0.169-0.015c-0.516,0.074-1.027,0.161-1.543,0.225c-0.16,0.021-0.222,0.094-0.24,0.292
		c-0.192,1.908-0.393,3.813-0.588,5.72c-0.18,1.766-0.359,3.531-0.537,5.297C19.843,20.943,19.752,21.859,19.656,22.824
		 M2.523,11.505c0.018,0.107,0.026,0.172,0.039,0.236c0.232,1.134,0.465,2.268,0.697,3.403c0.507,2.489,1.016,4.979,1.517,7.472
		c0.033,0.163,0.086,0.214,0.216,0.211c0.518-0.007,1.036-0.002,1.554-0.005c0.042,0,0.085-0.02,0.148-0.037
		c-0.454-3.898-0.906-7.783-1.361-11.697C4.387,11.229,3.469,11.365,2.523,11.505 M10.423,22.824
		c-0.154-4.16-0.306-8.271-0.46-12.419c-0.962,0.143-1.887,0.281-2.828,0.419c0.016,0.159,0.026,0.29,0.042,0.42
		c0.158,1.364,0.318,2.729,0.476,4.095c0.166,1.433,0.331,2.863,0.497,4.294c0.115,0.989,0.228,1.979,0.353,2.965
		c0.01,0.084,0.096,0.216,0.148,0.217C9.228,22.83,9.805,22.824,10.423,22.824 M14.592,9.76c-0.07-0.013-0.094-0.024-0.116-0.021
		c-0.851,0.123-1.702,0.249-2.553,0.369c-0.13,0.019-0.162,0.099-0.155,0.249c0.025,0.503,0.045,1.007,0.063,1.51
		c0.131,3.564,0.261,7.129,0.392,10.692c0.004,0.082,0.014,0.164,0.021,0.247h1.893C14.289,18.452,14.44,14.114,14.592,9.76
		 M17.833,22.808c0.468-4.587,0.932-9.156,1.396-13.724c-0.057-0.02-0.078-0.036-0.1-0.033c-0.851,0.125-1.7,0.255-2.551,0.375
		c-0.161,0.021-0.176,0.129-0.181,0.288c-0.072,2.138-0.148,4.276-0.223,6.413c-0.07,2.053-0.137,4.104-0.205,6.158
		c-0.006,0.167,0,0.336,0,0.522H17.833z M29.517,1.854c-0.158,0.533-0.476,0.794-0.921,0.918c-0.874,0.241-1.738,0.534-2.607,0.799
		c-0.15,0.046-0.223,0.116-0.25,0.329c-0.373,2.989-0.757,5.978-1.139,8.967c-0.395,3.082-0.791,6.164-1.188,9.247
		c-0.077,0.61-0.158,1.221-0.235,1.831c-0.097,0.765-0.419,0.619-1.055,0.621H5.417H5.283c0.042,0.236,0.071,0.922,0.111,1.123
		c0.088,0.441,0.189,0.883,0.264,1.329c0.038,0.228,0.125,0.303,0.302,0.279c0.091-0.012,0.185-0.001,0.277-0.001
		c5.882,0,11.764,0,17.646,0c0.323,0,0.631,0.049,0.861,0.381c0.25,0.357,0.29,0.762,0.154,1.174
		c-0.135,0.412-0.41,0.631-0.775,0.658c-0.076,0.006-0.154,0.006-0.232,0.006c-6.215,0-12.428,0-18.644,0
		c-0.718,0-1-0.269-1.175-1.132c-0.343-1.68-0.685-3.357-1.024-5.037c-0.391-1.938-0.778-3.877-1.171-5.814
		c-0.441-2.176-0.89-4.352-1.336-6.528c-0.012-0.062-0.038-0.121-0.058-0.181v-0.515C0.7,9.631,1.145,9.435,1.692,9.377
		c0.747-0.078,1.487-0.214,2.231-0.324c2.836-0.42,5.673-0.839,8.51-1.258c1.778-0.263,3.557-0.524,5.335-0.786
		c1.372-0.202,2.747-0.402,4.118-0.606c0.58-0.086,1.16-0.179,1.735-0.269c0.081-0.595,0.155-1.157,0.229-1.72
		c0.075-0.572,0.151-1.146,0.218-1.719c0.069-0.585,0.327-0.935,0.801-1.07c0.668-0.193,1.333-0.404,1.998-0.617
		c0.528-0.167,1.055-0.349,1.581-0.523h0.324c0.35,0.151,0.594,0.441,0.743,0.857V1.854z"/>
	<path display="inline" fill="#F0505A" d="M16.453,22.322h0.943l1.293-12.717l-0.251,0.038c-0.519,0.077-1.04,0.155-1.562,0.229
		l-0.424,12.43C16.453,22.309,16.453,22.315,16.453,22.322 M18.27,23.291h-2.784l-0.001-0.664c-0.001-0.123-0.002-0.24,0.001-0.357
		l0.428-12.572c0.019-0.554,0.334-0.714,0.595-0.751c0.598-0.082,1.192-0.171,1.787-0.26l0.933-0.118l0.468,0.188l0.015,0.378
		L18.27,23.291z M12.698,22.323l1.316,0.017l0.075-12.055l-1.828,0.265c0.021,0.44,0.038,0.87,0.053,1.301L12.698,22.323z
		 M14.604,23.291H11.8l-0.038-0.442c-0.014-0.141-0.02-0.204-0.022-0.269l-0.393-10.694c-0.018-0.501-0.037-1.002-0.063-1.503
		c-0.024-0.489,0.278-0.709,0.568-0.752l2.687-0.376l0.486,0.11l0.05,0.412L14.604,23.291z M19.842,22.353h0.17
		c0.227,0,0.8-0.013,1.021-0.016c0.158-1.424,0.316-2.886,0.475-4.345l0.797-7.342c0.057-0.513,0.109-1.025,0.161-1.545l0.007-0.066
		l-0.104,0.016c-0.279,0.042-0.79,0.119-1.069,0.157c-0.127,1.253-0.254,2.476-0.379,3.698L19.842,22.353z M20.359,23.31
		l-1.237-0.002l1.066-10.53c0.132-1.271,0.263-2.541,0.39-3.812C20.635,8.4,21.018,8.269,21.24,8.24
		c0.328-0.042,0.654-0.091,0.98-0.141l0.688-0.09l0.572,0.086l0.014,0.465l-0.065,0.645c-0.054,0.521-0.105,1.036-0.161,1.549
		l-0.798,7.342c-0.164,1.515-0.329,3.029-0.498,4.541c-0.022,0.21-0.2,0.648-0.604,0.661C21.035,23.307,20.701,23.31,20.359,23.31
		 M8.957,22.338c0.232,0.003,0.466,0.004,0.704,0.004l0.26-0.001L9.5,10.964l-1.836,0.272l1.007,8.688
		C8.764,20.729,8.857,21.534,8.957,22.338 M9.661,23.31c-0.346,0-0.685-0.002-1.023-0.011c-0.366-0.01-0.583-0.388-0.615-0.641
		c-0.11-0.873-0.212-1.748-0.313-2.622l-1.1-9.623l3.818-0.565l0.499,13.461L9.661,23.31z M3.091,11.91l0.813,3.978
		c0.439,2.151,0.877,4.302,1.311,6.454c0.185-0.002,0.369-0.002,0.553-0.002h0.387l-1.244-10.7L3.091,11.91z M5,23.312
		c-0.224,0-0.592-0.078-0.697-0.599c-0.445-2.213-0.896-4.422-1.346-6.631l-0.993-4.983l3.793-0.562l1.467,12.61l-0.406,0.106
		c-0.087,0.028-0.168,0.054-0.272,0.054l-0.778,0.001C5.513,23.308,5.256,23.308,5,23.312z M0.968,10.74
		c0.024,0.067,0.038,0.116,0.048,0.166l0.291,1.415c0.35,1.705,0.699,3.41,1.045,5.115l2.195,10.851
		c0.152,0.746,0.313,0.746,0.702,0.746l18.644-0.001c0.102-0.001,0.148,0,0.193-0.004c0.127-0.009,0.268-0.056,0.355-0.326
		c0.093-0.281,0.062-0.525-0.092-0.746c-0.086-0.123-0.169-0.174-0.465-0.174l-17.75-0.003L5.96,27.299l0.063,0.479l-0.119,0.008
		c-0.144,0-0.617-0.05-0.723-0.688c-0.047-0.285-0.107-0.569-0.167-0.853L4.92,25.782c-0.026-0.134-0.05-0.271-0.076-0.416
		l-0.143-0.8h17.42c0.294-0.001,0.494-0.049,0.574-0.682l1.601-12.472c0.323-2.524,0.646-5.047,0.961-7.573
		c0.049-0.386,0.241-0.625,0.589-0.731c0.305-0.092,0.608-0.189,0.911-0.285c0.567-0.179,1.136-0.359,1.709-0.518
		c0.301-0.084,0.465-0.233,0.565-0.526V1.431c-0.09-0.217-0.212-0.369-0.372-0.463h-0.133l-0.406,0.136
		c-0.369,0.123-0.737,0.247-1.106,0.365c-0.679,0.217-1.343,0.428-2.011,0.62c-0.201,0.058-0.396,0.178-0.453,0.664
		c-0.057,0.48-0.119,0.961-0.183,1.441l-0.313,2.364L3.292,9.64c-0.516,0.083-1.031,0.165-1.55,0.219
		c-0.442,0.047-0.646,0.183-0.774,0.53V10.74z M5.249,30c-1.178,0-1.488-0.73-1.649-1.521L1.404,17.629
		c-0.347-1.705-0.696-3.409-1.046-5.112L0,10.822l0.023-0.661c0.324-1.015,1.079-1.209,1.618-1.265c0.501-0.053,1-0.133,1.499-0.211
		l20.053-2.991l0.215-1.626c0.062-0.476,0.125-0.952,0.181-1.43c0.118-0.984,0.689-1.348,1.147-1.479
		c0.658-0.19,1.314-0.399,1.969-0.607c0.381-0.121,0.744-0.243,1.107-0.366L28.449,0l0.518,0.04c0.47,0.205,0.809,0.588,1.005,1.139
		L30,1.34l-0.021,0.652c-0.194,0.659-0.604,1.066-1.255,1.247c-0.561,0.155-1.118,0.331-1.675,0.507
		c-0.277,0.089-0.557,0.177-0.835,0.262c-0.318,2.533-0.637,5.03-0.957,7.528l-1.643,12.059c-0.129,1.012-0.604,0.97-1.493,0.972
		H5.857l0.105,1.481c0.052,0.253,0.105,0.507,0.15,0.763h0.054l17.717,0.003c0.395,0,0.896,0.066,1.258,0.588
		c0.331,0.474,0.407,1.026,0.219,1.601c-0.192,0.587-0.631,0.947-1.201,0.99c-0.068,0.006-0.14,0.007-0.213,0.007L5.249,30z"/>
</g>
<g display="none">
	<path display="inline" fill="#F0505A" d="M27.75,30c-0.576,0-1.152-0.218-1.592-0.658L0.66,3.841c-0.879-0.879-0.879-2.303,0-3.181
		c0.879-0.879,2.302-0.879,3.181,0l25.5,25.5c0.879,0.878,0.879,2.305,0,3.183C28.902,29.782,28.324,30,27.75,30z"/>
	<path display="inline" fill="#F0505A" d="M2.249,30c-0.575,0-1.15-0.218-1.589-0.658c-0.879-0.878-0.879-2.305,0-3.183l25.499-25.5
		c0.879-0.879,2.303-0.879,3.182,0c0.879,0.878,0.879,2.302,0,3.181L3.84,29.342C3.401,29.782,2.826,30,2.249,30z"/>
</g>
<g>
	<path fill="#F0505A" d="M15.091,2.717c-2.108,0-3.671,0.674-4.776,2.058c-1.804,2.262-1.837,5.829-1.455,7.149
		c0.784,2.701,4.125,8.977,5.975,12.352c1.863-3.366,5.221-9.625,5.95-12.329c0.382-1.412,0.341-5.151-1.485-7.4
		C18.3,3.316,16.921,2.717,15.091,2.717 M14.818,30l-1.244-2.192c-0.256-0.451-6.28-11.097-7.458-15.161
		c-0.492-1.699-0.664-6.26,1.934-9.518C9.684,1.083,12.118,0,15.091,0c2.694,0,4.926,0.997,6.459,2.884
		c2.62,3.229,2.473,7.957,1.992,9.741c-1.105,4.098-7.209,14.739-7.467,15.19L14.818,30z"/>
	<path fill="#F0505A" d="M17.674,11.312c0,1.504-1.277,2.724-2.854,2.724c-1.575,0-2.853-1.219-2.853-2.724
		c0-1.502,1.277-2.721,2.853-2.721C16.396,8.59,17.674,9.809,17.674,11.312"/>
</g>
</svg>
