<?xml version="1.0" encoding="utf-8"?>
<!-- Generator: Adobe Illustrator 16.0.0, SVG Export Plug-In . SVG Version: 6.00 Build 0)  -->
<!DOCTYPE svg PUBLIC "-//W3C//DTD SVG 1.0//EN" "http://www.w3.org/TR/2001/REC-SVG-20010904/DTD/svg10.dtd">
<svg version="1.0" id="Warstwa_1" xmlns="http://www.w3.org/2000/svg" xmlns:xlink="http://www.w3.org/1999/xlink" x="0px" y="0px"
	 width="30px" height="30px" viewBox="0 0 30 30" enable-background="new 0 0 30 30" xml:space="preserve">
<polygon fill="#FFFFFF" points="21.513,27.372 15.092,29.083 8.752,27.24 8.752,18.438 21.513,18.438 "/>
<g>
	<path fill="#FFFFFF" d="M8.675,20.727v6.82 M21.324,27.547v-6.82 M8.675,20.727c0-3.098,2.831-5.612,6.325-5.612
		c3.493,0,6.324,2.514,6.324,5.612"/>
	<path fill="#EE5159" d="M21.82,25.576h-0.992v-5.738h0.992V25.576z M9.171,25.576H8.18v-5.738h0.991V25.576z M21.82,19.838h-0.992
		c0-2.332-2.614-4.228-5.828-4.228c-3.214,0-5.829,1.896-5.829,4.228H8.18c0-2.879,3.06-5.219,6.82-5.219S21.82,16.959,21.82,19.838
		z"/>
	<path fill="#EE5159" d="M21.98,25.574l-1.312,0.961v-6.699c0-2.24-2.543-4.065-5.668-4.065s-5.668,1.825-5.668,4.065v6.699
		l-1.312-0.961v-5.738c0-2.965,3.131-5.377,6.98-5.377s6.981,2.413,6.981,5.377V25.574z"/>
	<path fill="#EE5159" d="M20.172,27.51v-7.674c0-1.969-2.32-3.568-5.172-3.568s-5.172,1.6-5.172,3.568v7.674l-2.304-1.684v-5.99
		c0-3.238,3.354-5.873,7.476-5.873s7.477,2.635,7.477,5.873v5.99L20.172,27.51z M15,15.276c3.399,0,6.164,2.046,6.164,4.56v5.723
		l0.322-0.234v-5.488c0-2.691-2.909-4.882-6.486-4.882c-3.576,0-6.485,2.19-6.485,4.882v5.488l0.321,0.234v-5.723
		C8.836,17.322,11.601,15.276,15,15.276z"/>
	<path fill="#FFFFFF" d="M17.999,12.044c-0.874,1.941-1.034,3.842-3,3.842c-1.966,0-2.279-1.737-3.094-3.842
		C11.193,10.211,11.749,7.239,15,7.239C17.96,7.239,18.807,10.251,17.999,12.044"/>
	<path fill="#EE5159" d="M15,16.381c-2.04,0-2.625-1.61-3.244-3.315c-0.099-0.271-0.201-0.554-0.313-0.843
		c-0.519-1.338-0.38-2.897,0.355-3.972C12.269,7.564,13.207,6.744,15,6.744c1.349,0,2.463,0.576,3.139,1.621
		c0.727,1.124,0.852,2.685,0.312,3.883c-0.186,0.412-0.338,0.823-0.483,1.213C17.434,14.896,16.882,16.381,15,16.381z M15,7.735
		c-1.092,0-1.895,0.362-2.383,1.077c-0.632,0.924-0.581,2.199-0.249,3.053c0.115,0.296,0.22,0.585,0.321,0.863
		c0.653,1.798,1.023,2.662,2.312,2.662c1.143,0,1.468-0.739,2.04-2.275c0.152-0.41,0.313-0.841,0.508-1.274
		c0.4-0.891,0.302-2.098-0.241-2.938C16.961,8.37,16.281,7.735,15,7.735z"/>
	<path fill="#EE5159" d="M15.001,7.896c-1.036,0-1.793,0.339-2.25,1.006c-0.6,0.876-0.55,2.09-0.232,2.904
		c0.115,0.297,0.22,0.587,0.321,0.865c0.644,1.774,0.978,2.559,2.161,2.559c0.994,0,1.292-0.562,1.889-2.172
		c0.154-0.412,0.312-0.841,0.51-1.283c0.382-0.844,0.287-1.988-0.228-2.784C16.85,8.492,16.212,7.896,15.001,7.896 M15.001,16.543
		c-2.153,0-2.756-1.663-3.396-3.423c-0.098-0.269-0.2-0.551-0.311-0.838c-0.538-1.386-0.392-3.003,0.373-4.121
		c0.493-0.72,1.472-1.577,3.334-1.577c1.404,0,2.568,0.602,3.274,1.695c0.755,1.167,0.884,2.789,0.324,4.036
		c-0.182,0.4-0.333,0.807-0.479,1.2C17.569,15.003,16.996,16.543,15.001,16.543"/>
	<path fill="#EE5159" d="M15.001,17.039c-2.5,0-3.223-1.992-3.861-3.749c-0.103-0.284-0.201-0.554-0.308-0.83
		c-0.595-1.533-0.428-3.332,0.426-4.58c0.56-0.818,1.664-1.793,3.743-1.793c1.58,0,2.89,0.683,3.691,1.922
		c0.841,1.302,0.985,3.114,0.358,4.508c-0.176,0.391-0.324,0.787-0.465,1.169C18.032,15.179,17.344,17.039,15.001,17.039z
		 M15.001,7.079c-1.647,0-2.5,0.74-2.925,1.361c-0.675,0.986-0.8,2.424-0.32,3.661c0.11,0.283,0.21,0.56,0.307,0.826
		c0.706,1.943,1.22,3.12,2.938,3.12c1.542,0,2.032-1.021,2.655-2.705c0.149-0.403,0.305-0.82,0.491-1.232
		c0.494-1.099,0.378-2.531-0.288-3.562C17.248,7.601,16.232,7.079,15.001,7.079z M15.001,15.725c-1.58,0-2.019-1.209-2.627-2.885
		c-0.119-0.326-0.214-0.588-0.317-0.855c-0.364-0.934-0.417-2.336,0.285-3.363C12.724,8.065,13.496,7.4,15.001,7.4
		c1.432,0,2.198,0.719,2.588,1.322c0.61,0.946,0.716,2.254,0.263,3.257c-0.186,0.413-0.336,0.817-0.48,1.206
		C16.764,14.824,16.363,15.725,15.001,15.725z M15.001,8.392c-0.875,0-1.477,0.258-1.841,0.791c-0.496,0.724-0.44,1.774-0.179,2.444
		c0.106,0.275,0.204,0.543,0.298,0.802c0.685,1.883,0.919,2.307,1.723,2.307c0.599,0,0.802-0.17,1.424-1.849
		c0.17-0.454,0.327-0.877,0.522-1.312c0.312-0.688,0.229-1.66-0.191-2.313C16.385,8.684,15.793,8.392,15.001,8.392z"/>
	<path fill="#EE5159" d="M15,30C6.729,30,0,23.271,0,15C0,6.729,6.729,0,15,0S30,6.729,30,15C30,23.271,23.271,30,15,30z M15,2.974
		C8.369,2.974,2.974,8.369,2.974,15c0,6.63,5.395,12.025,12.026,12.025c6.631,0,12.027-5.395,12.027-12.025
		C27.026,8.369,21.631,2.974,15,2.974z"/>
</g>
<g display="none">
	<path display="inline" fill="#EE5159" d="M15.019,26.018c0.115-0.148,0.186-0.264,0.278-0.357c2.672-2.674,5.344-5.346,8.016-8.02
		c0.784-0.783,1.604-1.535,2.34-2.361c1.838-2.057,2.241-4.404,1.186-6.944c-0.982-2.363-3.36-3.861-5.929-3.815
		c-1.728,0.031-3.207,0.687-4.441,1.892c-0.521,0.509-1.03,1.031-1.576,1.579c-0.557-0.57-1.07-1.14-1.629-1.658
		C11.71,4.891,9.862,4.298,7.78,4.675C5.397,5.106,3.738,6.504,2.967,8.809c-0.78,2.334-0.271,4.457,1.328,6.316
		c0.434,0.503,0.881,0.998,1.348,1.469c2.215,2.238,4.439,4.467,6.659,6.695C13.186,24.176,14.069,25.062,15.019,26.018
		 M15.016,28.922c-0.676-0.656-1.346-1.287-1.992-1.939c-3.415-3.453-6.869-6.865-10.223-10.375
		c-4.297-4.495-2.336-11.976,3.587-13.77c3.074-0.93,5.842-0.229,8.257,1.878c0.083,0.073,0.163,0.148,0.262,0.238
		c0.087-0.079,0.167-0.149,0.248-0.222c2.498-2.229,5.375-2.931,8.547-1.867c3.156,1.059,5.084,3.328,5.669,6.613
		c0.518,2.909-0.356,5.438-2.433,7.528c-3.243,3.264-6.502,6.508-9.755,9.762c-0.651,0.65-1.303,1.301-1.954,1.951
		C15.153,28.799,15.07,28.871,15.016,28.922"/>
	<path display="inline" fill="#EE5159" d="M8.981,5.048c-0.362,0-0.738,0.035-1.115,0.103c-2.236,0.406-3.73,1.688-4.441,3.812
		c-0.705,2.108-0.289,4.075,1.236,5.847c0.475,0.551,0.908,1.023,1.325,1.447c1.64,1.656,3.285,3.309,4.932,4.957l4.062,4.08
		l7.99-7.994c0.237-0.236,0.479-0.473,0.719-0.707c0.54-0.525,1.099-1.07,1.603-1.634c1.708-1.914,2.079-4.08,1.099-6.437
		c-0.888-2.136-2.996-3.517-5.366-3.517l-0.106,0.001c-1.566,0.027-2.949,0.618-4.112,1.754c-0.356,0.348-0.708,0.705-1.069,1.07
		l-0.847,0.851l-0.863-0.892c-0.362-0.379-0.717-0.751-1.093-1.101C11.763,5.6,10.433,5.048,8.981,5.048 M15.064,26.75l-4.832-4.854
		c-1.646-1.65-3.292-3.303-4.933-4.963c-0.433-0.436-0.881-0.926-1.371-1.493c-1.763-2.049-2.24-4.332-1.419-6.786
		c0.819-2.449,2.612-3.989,5.186-4.456c2.197-0.397,4.208,0.21,5.898,1.78c0.39,0.362,0.758,0.748,1.133,1.142l0.172,0.179
		l0.149-0.152c0.367-0.37,0.722-0.729,1.082-1.082c1.347-1.314,2.951-1.997,4.773-2.029l0.122-0.001
		c2.764,0,5.221,1.615,6.261,4.115c1.118,2.691,0.679,5.268-1.271,7.452c-0.527,0.589-1.097,1.146-1.648,1.683
		c-0.237,0.232-0.475,0.465-0.71,0.699l-8.016,8.018c-0.044,0.045-0.081,0.1-0.127,0.162L15.064,26.75z M8.992,2.918
		c-0.795,0-1.625,0.128-2.463,0.383C3.913,4.093,1.934,6.156,1.234,8.819c-0.704,2.676,0.013,5.462,1.916,7.453
		c2.408,2.52,4.909,5.029,7.327,7.461c0.965,0.967,1.929,1.936,2.891,2.908c0.441,0.445,0.893,0.879,1.349,1.318l0.3,0.291
		l4.71-4.707c2.291-2.289,4.584-4.578,6.867-6.875c2.006-2.021,2.778-4.41,2.3-7.104c-0.559-3.137-2.358-5.237-5.347-6.239
		c-2.929-0.982-5.656-0.385-8.07,1.77l-0.573,0.511l-0.577-0.523C12.681,3.646,10.888,2.918,8.992,2.918 M15.06,29.539l-0.381-0.27
		l-0.633-0.613c-0.462-0.443-0.92-0.885-1.367-1.336c-0.96-0.971-1.924-1.938-2.888-2.906c-2.423-2.434-4.927-4.947-7.341-7.473
		c-2.137-2.237-2.943-5.364-2.153-8.367c0.786-2.992,3.01-5.309,5.95-6.199c3.135-0.951,6.084-0.292,8.661,1.929
		c2.656-2.332,5.717-2.98,8.947-1.897c3.302,1.108,5.373,3.524,5.989,6.988c0.539,3.021-0.324,5.698-2.563,7.955
		c-2.285,2.299-4.579,4.59-6.872,6.879l-4.838,4.836c-0.06,0.059-0.122,0.117-0.174,0.164L15.06,29.539z"/>
</g>
</svg>
