<?xml version="1.0" encoding="utf-8"?>
<!-- Generator: Adobe Illustrator 16.0.0, SVG Export Plug-In . SVG Version: 6.00 Build 0)  -->
<!DOCTYPE svg PUBLIC "-//W3C//DTD SVG 1.0//EN" "http://www.w3.org/TR/2001/REC-SVG-20010904/DTD/svg10.dtd">
<svg version="1.0" id="Warstwa_1" xmlns="http://www.w3.org/2000/svg" xmlns:xlink="http://www.w3.org/1999/xlink" x="0px" y="0px"
	 width="30px" height="30px" viewBox="0 0 30 30" enable-background="new 0 0 30 30" xml:space="preserve">
<polygon fill="#FFFFFF" points="21.513,27.372 15.092,29.083 8.752,27.24 8.752,18.438 21.513,18.438 "/>
<g display="none">
	<path display="inline" fill="#FFFFFF" d="M8.675,20.727v6.82 M21.324,27.547v-6.82 M8.675,20.727c0-3.098,2.831-5.612,6.325-5.612
		c3.493,0,6.324,2.514,6.324,5.612"/>
	<path display="inline" fill="#EE5159" d="M21.82,25.576h-0.992v-5.738h0.992V25.576z M9.171,25.576H8.18v-5.738h0.991V25.576z
		 M21.82,19.838h-0.992c0-2.332-2.614-4.228-5.828-4.228c-3.214,0-5.829,1.896-5.829,4.228H8.18c0-2.879,3.06-5.219,6.82-5.219
		S21.82,16.959,21.82,19.838z"/>
	<path display="inline" fill="#EE5159" d="M21.98,25.574l-1.312,0.961v-6.699c0-2.24-2.543-4.065-5.668-4.065
		s-5.668,1.825-5.668,4.065v6.699l-1.312-0.961v-5.738c0-2.965,3.131-5.377,6.98-5.377s6.981,2.413,6.981,5.377V25.574z"/>
	<path display="inline" fill="#EE5159" d="M20.172,27.51v-7.674c0-1.969-2.32-3.568-5.172-3.568s-5.172,1.6-5.172,3.568v7.674
		l-2.304-1.684v-5.99c0-3.238,3.354-5.873,7.476-5.873s7.477,2.635,7.477,5.873v5.99L20.172,27.51z M15,15.276
		c3.399,0,6.164,2.046,6.164,4.56v5.723l0.322-0.234v-5.488c0-2.691-2.909-4.882-6.486-4.882c-3.576,0-6.485,2.19-6.485,4.882v5.488
		l0.321,0.234v-5.723C8.836,17.322,11.601,15.276,15,15.276z"/>
	<path display="inline" fill="#FFFFFF" d="M17.999,12.044c-0.874,1.941-1.034,3.842-3,3.842c-1.966,0-2.279-1.737-3.094-3.842
		C11.193,10.211,11.749,7.239,15,7.239C17.96,7.239,18.807,10.251,17.999,12.044"/>
	<path display="inline" fill="#EE5159" d="M15,16.381c-2.04,0-2.625-1.61-3.244-3.315c-0.099-0.271-0.201-0.554-0.313-0.843
		c-0.519-1.338-0.38-2.897,0.355-3.972C12.269,7.564,13.207,6.744,15,6.744c1.349,0,2.463,0.576,3.139,1.621
		c0.727,1.124,0.852,2.685,0.312,3.883c-0.186,0.412-0.338,0.823-0.483,1.213C17.434,14.896,16.882,16.381,15,16.381z M15,7.735
		c-1.092,0-1.895,0.362-2.383,1.077c-0.632,0.924-0.581,2.199-0.249,3.053c0.115,0.296,0.22,0.585,0.321,0.863
		c0.653,1.798,1.023,2.662,2.312,2.662c1.143,0,1.468-0.739,2.04-2.275c0.152-0.41,0.313-0.841,0.508-1.274
		c0.4-0.891,0.302-2.098-0.241-2.938C16.961,8.37,16.281,7.735,15,7.735z"/>
	<path display="inline" fill="#EE5159" d="M15.001,7.896c-1.036,0-1.793,0.339-2.25,1.006c-0.6,0.876-0.55,2.09-0.232,2.904
		c0.115,0.297,0.22,0.587,0.321,0.865c0.644,1.774,0.978,2.559,2.161,2.559c0.994,0,1.292-0.562,1.889-2.172
		c0.154-0.412,0.312-0.841,0.51-1.283c0.382-0.844,0.287-1.988-0.228-2.784C16.85,8.492,16.212,7.896,15.001,7.896 M15.001,16.543
		c-2.153,0-2.756-1.663-3.396-3.423c-0.098-0.269-0.2-0.551-0.311-0.838c-0.538-1.386-0.392-3.003,0.373-4.121
		c0.493-0.72,1.472-1.577,3.334-1.577c1.404,0,2.568,0.602,3.274,1.695c0.755,1.167,0.884,2.789,0.324,4.036
		c-0.182,0.4-0.333,0.807-0.479,1.2C17.569,15.003,16.996,16.543,15.001,16.543"/>
	<path display="inline" fill="#EE5159" d="M15.001,17.039c-2.5,0-3.223-1.992-3.861-3.749c-0.103-0.284-0.201-0.554-0.308-0.83
		c-0.595-1.533-0.428-3.332,0.426-4.58c0.56-0.818,1.664-1.793,3.743-1.793c1.58,0,2.89,0.683,3.691,1.922
		c0.841,1.302,0.985,3.114,0.358,4.508c-0.176,0.391-0.324,0.787-0.465,1.169C18.032,15.179,17.344,17.039,15.001,17.039z
		 M15.001,7.079c-1.647,0-2.5,0.74-2.925,1.361c-0.675,0.986-0.8,2.424-0.32,3.661c0.11,0.283,0.21,0.56,0.307,0.826
		c0.706,1.943,1.22,3.12,2.938,3.12c1.542,0,2.032-1.021,2.655-2.705c0.149-0.403,0.305-0.82,0.491-1.232
		c0.494-1.099,0.378-2.531-0.288-3.562C17.248,7.601,16.232,7.079,15.001,7.079z M15.001,15.725c-1.58,0-2.019-1.209-2.627-2.885
		c-0.119-0.326-0.214-0.588-0.317-0.855c-0.364-0.934-0.417-2.336,0.285-3.363C12.724,8.065,13.496,7.4,15.001,7.4
		c1.432,0,2.198,0.719,2.588,1.322c0.61,0.946,0.716,2.254,0.263,3.257c-0.186,0.413-0.336,0.817-0.48,1.206
		C16.764,14.824,16.363,15.725,15.001,15.725z M15.001,8.392c-0.875,0-1.477,0.258-1.841,0.791c-0.496,0.724-0.44,1.774-0.179,2.444
		c0.106,0.275,0.204,0.543,0.298,0.802c0.685,1.883,0.919,2.307,1.723,2.307c0.599,0,0.802-0.17,1.424-1.849
		c0.17-0.454,0.327-0.877,0.522-1.312c0.312-0.688,0.229-1.66-0.191-2.313C16.385,8.684,15.793,8.392,15.001,8.392z"/>
	<path display="inline" fill="#EE5159" d="M15,30C6.729,30,0,23.271,0,15C0,6.729,6.729,0,15,0S30,6.729,30,15
		C30,23.271,23.271,30,15,30z M15,2.974C8.369,2.974,2.974,8.369,2.974,15c0,6.63,5.395,12.025,12.026,12.025
		c6.631,0,12.027-5.395,12.027-12.025C27.026,8.369,21.631,2.974,15,2.974z"/>
</g>
<g>
	<path fill="#EE5159" d="M15,11.625c-1.86,0-3.374,1.515-3.374,3.375S13.14,18.374,15,18.374c1.859,0,3.375-1.514,3.375-3.374
		S16.859,11.625,15,11.625 M15,21.23c-3.436,0-6.23-2.794-6.23-6.23S11.564,8.769,15,8.769c3.438,0,6.231,2.794,6.231,6.231
		S18.438,21.23,15,21.23"/>
</g>
<path fill="#EE5159" d="M13.845,5.593l0.566-2.737h1.062l0.726,2.762l4.633,1.919l2.338-1.54l0.75,0.749l-1.436,2.46l1.912,4.701
	l2.749,0.567v1.06l-2.75,0.721l-1.982,4.61l1.542,2.35l-0.748,0.749l-2.458-1.435l-4.592,1.865l-0.568,2.749h-1.061L13.8,24.382
	l-4.636-1.921l-2.337,1.54l-0.75-0.751l1.44-2.467l-1.925-4.569L2.856,15.65V14.59l2.773-0.728l1.856-4.661L5.953,6.872l0.748-0.749
	l2.472,1.441L13.845,5.593z M12.085,0l-0.733,3.544L9.38,4.378L6.239,2.545L2.287,6.5l1.991,3.028l-0.77,1.938L0,12.386v5.592
	l3.545,0.729l0.786,1.87l-1.832,3.137l3.955,3.954l3.017-1.986l1.927,0.799L12.323,30h5.592l0.729-3.531l1.879-0.764l3.146,1.837
	l3.952-3.951l-1.977-3.01l0.823-1.915l3.531-0.927v-5.593l-3.532-0.729L25.66,9.432l1.838-3.146L23.543,2.33l-3.02,1.986L18.6,3.521
	L17.676,0H12.085z"/>
</svg>
