<?xml version="1.0" encoding="utf-8"?>
<!-- Generator: Adobe Illustrator 16.0.0, SVG Export Plug-In . SVG Version: 6.00 Build 0)  -->
<!DOCTYPE svg PUBLIC "-//W3C//DTD SVG 1.1//EN" "http://www.w3.org/Graphics/SVG/1.1/DTD/svg11.dtd">
<svg version="1.1" id="Warstwa_1" xmlns="http://www.w3.org/2000/svg" xmlns:xlink="http://www.w3.org/1999/xlink" x="0px" y="0px"
	 width="32.24px" height="30.231px" viewBox="0 0 32.24 30.231" enable-background="new 0 0 32.24 30.231" xml:space="preserve">
<g>
	<path fill="#DC0519" d="M15.132,30.248C6.788,30.248,0,23.46,0,15.116C0,6.772,6.788-0.017,15.132-0.017
		c8.343,0,15.131,6.789,15.131,15.133C30.263,23.46,23.475,30.248,15.132,30.248z M15.132,2.983C8.442,2.983,3,8.426,3,15.116
		c0,6.689,5.443,12.132,12.133,12.132c6.689,0,12.131-5.442,12.131-12.132C27.263,8.426,21.822,2.983,15.132,2.983z"/>
	<g>
		<path fill="#DC0519" d="M2.01,12.366l11,11c0.585,0.586,1.354,0.879,2.121,0.879s1.536-0.293,2.121-0.879
			c1.172-1.171,1.172-3.071,0-4.242L4.447,6.319L2.01,12.366z"/>
		<g>
			<path fill="#DC0519" d="M15.131,24.245c-0.768,0-1.536-0.293-2.122-0.879c-1.171-1.172-1.171-3.071,0-4.243l13-12.997
				c1.172-1.171,3.071-1.171,4.243,0c1.171,1.172,1.171,3.071-0.001,4.243l-13,12.997C16.666,23.952,15.898,24.245,15.131,24.245z"
				/>
			<path fill="#FFFFFF" d="M18.793,11.634l6.247-6.247c1.606-1.605,4.405-1.605,6.011,0.001c1.657,1.657,1.546,4.374-0.111,6.029
				l-5.537,5.537l-1.066-0.651l5.745-5.744c1.184-1.183,1.295-3.128,0.112-4.312c-0.574-0.574-1.336-0.89-2.147-0.89
				c-0.811,0-1.573,0.316-2.146,0.889l-6.001,6L18.793,11.634z"/>
		</g>
	</g>
</g>
</svg>
